<svg width="109" height="120" viewBox="0 0 109 120" fill="none" xmlns="http://www.w3.org/2000/svg">
<path d="M99.9167 17.05L99.3717 10.75L93.9217 12.75C84.5813 16.3227 74.6072 17.4191 64.8096 15.95C54.5143 14.1911 43.9766 15.7541 34.4712 20.45C29.4322 22.8122 25.0098 26.5246 21.6069 31.249C18.2039 35.9735 15.9284 41.56 14.9875 47.5C13.7675 55.1734 14.3778 63.0641 16.7587 70.4C18.2918 66.5904 20.0833 62.9134 22.1179 59.4C26.7332 51.9242 33.1282 45.9909 40.6025 42.25C47.803 38.6306 55.6735 36.9182 63.5833 37.25C56.054 38.5203 48.8468 41.5 42.4192 46C39.3199 48.1451 36.4813 50.7158 33.9717 53.65C31.5726 56.5841 29.457 59.7846 27.6587 63.2C24.2828 70.3403 21.8802 77.989 20.5283 85.9C19.0714 93.8366 18.2808 101.904 18.1667 110H27.25C27.6816 102.74 28.577 95.5218 29.9296 88.4C36.2308 92.146 43.2973 94.0565 50.4579 93.95C57.1363 93.945 63.746 92.4658 69.8962 89.6C104.458 73.35 99.9167 19.3 99.9167 17.05Z" fill="#FAF8F6"/>
</svg>
