<svg width="120" height="110" viewBox="0 0 120 110" fill="none" xmlns="http://www.w3.org/2000/svg">
<path opacity="0.5" fill-rule="evenodd" clip-rule="evenodd" d="M37.2751 15.8767C37.4066 15.1078 37.7494 14.3822 38.2714 13.7684C38.7935 13.1545 39.4774 12.6727 40.2588 12.3682C41.0401 12.0637 41.8932 11.9466 42.7376 12.028C43.582 12.1094 44.3899 12.3865 45.0851 12.8333L56.7701 20.35C57.6241 20.9002 58.6444 21.1916 59.6881 21.1833C60.7319 21.1751 61.7466 20.8677 62.5901 20.3042L74.1201 12.595C74.8062 12.1365 75.6083 11.8457 76.4509 11.7501C77.2935 11.6544 78.1488 11.757 78.9362 12.0482C79.7236 12.3394 80.4171 12.8095 80.9514 13.4144C81.4857 14.0193 81.8432 14.7389 81.9901 15.5054L84.4501 28.3938C84.6298 29.3368 85.1272 30.2047 85.8724 30.8754C86.6176 31.5462 87.5732 31.9862 88.6051 32.1338L102.705 34.155C103.545 34.2751 104.337 34.5894 105.007 35.0682C105.678 35.547 106.204 36.1745 106.536 36.8914C106.868 37.6084 106.996 38.3911 106.906 39.1658C106.817 39.9404 106.514 40.6814 106.025 41.3188L97.8251 52.0254C97.2249 52.8082 96.9071 53.7435 96.916 54.7003C96.925 55.657 97.2604 56.5872 97.8751 57.3604L106.29 67.9342C106.79 68.5631 107.107 69.2984 107.212 70.0708C107.316 70.8431 107.204 71.6272 106.887 72.3489C106.569 73.0707 106.056 73.7064 105.396 74.1962C104.736 74.686 103.951 75.0136 103.115 75.1483L89.0551 77.4033C88.027 77.5678 87.0808 78.023 86.3491 78.7052C85.6175 79.3874 85.137 80.2624 84.9751 81.2075L82.7701 94.1371C82.6391 94.9067 82.2962 95.6331 81.7739 96.2475C81.2516 96.862 80.5671 97.3443 79.7849 97.6489C79.0028 97.9535 78.1489 98.0703 77.3038 97.9883C76.4587 97.9063 75.6504 97.6283 74.9551 97.1804L63.2751 89.6638C62.4212 89.1136 61.4008 88.8222 60.3571 88.8304C59.3134 88.8386 58.2986 89.1461 57.4551 89.7096L45.9201 97.4233C45.2337 97.8819 44.4312 98.1725 43.5882 98.268C42.7453 98.3634 41.8897 98.2604 41.1022 97.9687C40.3148 97.677 39.6213 97.2063 39.0873 96.6009C38.5533 95.9954 38.1964 95.2753 38.0501 94.5083L35.5901 81.62C35.4107 80.6776 34.9141 79.8102 34.1699 79.1395C33.4257 78.4688 32.4711 78.0284 31.4401 77.88L17.3351 75.8633C16.4955 75.7432 15.7031 75.4289 15.0328 74.9502C14.3625 74.4714 13.8364 73.8439 13.5041 73.1269C13.1718 72.4099 13.0444 71.6272 13.1338 70.8525C13.2232 70.0779 13.5265 69.3369 14.0151 68.6996L22.2151 57.9883C22.8153 57.2056 23.1332 56.2702 23.1242 55.3135C23.1152 54.3567 22.7799 53.4265 22.1651 52.6533L13.7501 42.0842C13.2499 41.455 12.9328 40.7193 12.8287 39.9466C12.7246 39.1739 12.837 38.3897 13.1552 37.6678C13.4734 36.9459 13.9869 36.3103 14.6474 35.8208C15.3078 35.3313 16.0935 35.0041 16.9301 34.87L30.9901 32.6104C32.0173 32.4451 32.9624 31.9895 33.6931 31.3074C34.4238 30.6252 34.9035 29.7507 35.0651 28.8062L37.2751 15.8767ZM60.0001 77.9167C66.6305 77.9167 72.9894 75.5022 77.6778 71.2045C82.3662 66.9068 85.0001 61.0779 85.0001 55C85.0001 48.9221 82.3662 43.0932 77.6778 38.7955C72.9894 34.4978 66.6305 32.0833 60.0001 32.0833C53.3697 32.0833 47.0109 34.4978 42.3224 38.7955C37.634 43.0932 35.0001 48.9221 35.0001 55C35.0001 61.0779 37.634 66.9068 42.3224 71.2045C47.0109 75.5022 53.3697 77.9167 60.0001 77.9167Z" fill="#9B738F"/>
<path fill-rule="evenodd" clip-rule="evenodd" d="M80 55C80 59.8623 77.8929 64.5255 74.1421 67.9636C70.3914 71.4018 65.3043 73.3333 60 73.3333C54.6957 73.3333 49.6086 71.4018 45.8579 67.9636C42.1071 64.5255 40 59.8623 40 55C40 50.1377 42.1071 45.4745 45.8579 42.0364C49.6086 38.5982 54.6957 36.6667 60 36.6667C65.3043 36.6667 70.3914 38.5982 74.1421 42.0364C77.8929 45.4745 80 50.1377 80 55Z" fill="#9B738F"/>
</svg>
