<svg width="115" height="119" viewBox="0 0 115 119" fill="none" xmlns="http://www.w3.org/2000/svg">
<path opacity="0.2" fill-rule="evenodd" clip-rule="evenodd" d="M63.25 39.9959C72.9675 22.0091 106.375 28.2863 106.375 54.2759C106.375 71.638 92 87.4908 63.25 101.834C34.5 87.4947 20.125 71.642 20.125 54.2759C20.125 28.2863 53.5325 22.0091 63.25 39.9959Z" fill="#9B738F"/>
<path fill-rule="evenodd" clip-rule="evenodd" d="M32.3035 27.4771C24.0638 29.5477 17.25 36.1165 17.25 47.5762C17.25 62.832 29.7218 77.7605 57.5 91.8918C85.2783 77.7605 97.75 62.832 97.75 47.5762C97.75 36.1224 90.9362 29.5477 82.6965 27.4771C74.2383 25.347 64.745 28.0899 59.8172 35.0336C59.5502 35.4099 59.2012 35.7159 58.7987 35.9268C58.3961 36.1378 57.9512 36.2477 57.5 36.2477C57.0488 36.2477 56.6039 36.1378 56.2013 35.9268C55.7988 35.7159 55.4498 35.4099 55.1828 35.0336C50.255 28.0899 40.7617 25.347 32.3035 27.4771ZM57.5 28.7266C50.6575 21.6283 40.066 19.397 30.9465 21.6878C20.4987 24.3236 11.5 32.9987 11.5 47.5762C11.5 66.8542 27.4045 83.4666 56.2523 97.8775C56.6415 98.0715 57.068 98.1723 57.5 98.1723C57.932 98.1723 58.3585 98.0715 58.7477 97.8775C87.5955 83.4666 103.5 66.8601 103.5 47.5762C103.5 32.9987 94.5013 24.3236 84.0535 21.6937C74.934 19.403 64.3483 21.6402 57.5 28.7266Z" fill="#9B738F"/>
</svg>
