<svg width="111" height="106" viewBox="0 0 111 106" fill="none" xmlns="http://www.w3.org/2000/svg">
<path d="M98.0613 75.5664L70.9791 34.5991C69.9304 33.0097 69.3742 31.1693 69.3748 29.2908V13.25H72.7481C74.6147 13.25 76.2169 11.8795 76.3101 10.0969C76.3327 9.64886 76.2598 9.20109 76.0957 8.78075C75.9317 8.36042 75.68 7.97628 75.3558 7.65163C75.0317 7.32697 74.6419 7.06858 74.21 6.89211C73.7781 6.71563 73.3132 6.62476 72.8435 6.625H38.2536C36.3869 6.625 34.7848 7.99555 34.6916 9.77809C34.669 10.226 34.7419 10.6736 34.9058 11.0938C35.0697 11.514 35.3212 11.898 35.6451 12.2226C35.969 12.5472 36.3586 12.8057 36.7902 12.9823C37.2218 13.1589 37.6865 13.25 38.156 13.25H41.6248V29.2908C41.6263 31.1691 41.0692 33.0092 40.0183 34.597L12.9382 75.5664C11.3721 77.8931 10.4948 80.5812 10.3993 83.3456C10.3039 86.11 10.9939 88.8475 12.3962 91.2677C15.2709 96.3089 20.8903 99.375 26.9108 99.375H84.0888C90.1092 99.375 95.7286 96.3089 98.6033 91.2573C100.003 88.8384 100.692 86.1029 100.597 83.3405C100.502 80.5782 99.6254 77.8919 98.0613 75.5664ZM45.887 38.1352C47.6367 35.488 48.5643 32.4212 48.5623 29.2908V14.0781C48.5623 13.8585 48.6536 13.6479 48.8162 13.4926C48.9789 13.3372 49.1995 13.25 49.4294 13.25H61.5701C61.8001 13.25 62.0206 13.3372 62.1833 13.4926C62.3459 13.6479 62.4373 13.8585 62.4373 14.0781V29.2908C62.4358 32.4214 63.3642 35.4882 65.1147 38.1352L77.6456 57.0847C77.8113 57.3355 77.9035 57.6241 77.9125 57.9205C77.9216 58.217 77.8471 58.5102 77.6969 58.7698C77.5468 59.0293 77.3264 59.2456 77.0588 59.396C76.7912 59.5465 76.4862 59.6255 76.1757 59.625H34.8238C34.5135 59.6252 34.2088 59.5458 33.9415 59.3953C33.6742 59.2447 33.4541 59.0284 33.3042 58.7689C33.1543 58.5094 33.08 58.2163 33.0892 57.92C33.0983 57.6238 33.1905 57.3353 33.3561 57.0847L45.887 38.1352Z" fill="#9B738F"/>
</svg>
