<svg width="112" height="129" viewBox="0 0 112 129" fill="none" xmlns="http://www.w3.org/2000/svg">
<mask id="path-1-inside-1_14_17" fill="white">
<path d="M48.125 82.6406C48.125 83.6372 47.8684 84.6115 47.3877 85.4401C46.9069 86.2688 46.2237 86.9147 45.4242 87.2961C44.6248 87.6775 43.7451 87.7772 42.8965 87.5828C42.0478 87.3884 41.2683 86.9085 40.6564 86.2037C40.0446 85.499 39.6279 84.6011 39.4591 83.6236C39.2903 82.6462 39.3769 81.633 39.708 80.7122C40.0392 79.7914 40.5999 79.0044 41.3194 78.4507C42.0388 77.897 42.8847 77.6015 43.75 77.6015C44.9103 77.6015 46.0231 78.1324 46.8436 79.0774C47.6641 80.0224 48.125 81.3041 48.125 82.6406ZM68.25 77.6015C67.3847 77.6015 66.5388 77.897 65.8194 78.4507C65.0999 79.0044 64.5392 79.7914 64.208 80.7122C63.8769 81.633 63.7903 82.6462 63.9591 83.6236C64.1279 84.6011 64.5445 85.499 65.1564 86.2037C65.7683 86.9085 66.5478 87.3884 67.3965 87.5828C68.2451 87.7772 69.1248 87.6775 69.9242 87.2961C70.7237 86.9147 71.4069 86.2688 71.8877 85.4401C72.3684 84.6115 72.625 83.6372 72.625 82.6406C72.625 81.3041 72.1641 80.0224 71.3436 79.0774C70.5231 78.1324 69.4103 77.6015 68.25 77.6015ZM93.625 94.7343C93.6251 99.757 92.3218 104.665 89.8825 108.829C87.4432 112.992 83.9792 116.221 79.9351 118.1C75.8911 119.979 71.4517 120.424 67.1868 119.376C62.9219 118.328 59.0263 115.836 56 112.22C53.9611 114.662 51.5156 116.605 48.8096 117.934C46.1036 119.262 43.1929 119.948 40.2513 119.951C37.3098 119.954 34.398 119.274 31.69 117.951C28.9821 116.628 26.5336 114.689 24.4911 112.251C22.4485 109.813 20.8539 106.926 19.8025 103.762C18.7511 100.597 18.2645 97.2216 18.372 93.8358C18.4794 90.4501 19.1786 87.1241 20.4277 84.0568C21.6769 80.9894 23.4503 78.2437 25.6419 75.984C26.0804 72.1664 27.0588 68.4573 28.5381 65.0039C24.3933 55.5514 21.3679 45.5012 19.5431 35.1222C18.2306 27.2512 17.3556 16.523 20.72 10.1184C21.4919 8.54383 22.6202 7.23988 23.9846 6.34542C25.349 5.45096 26.8986 4.99946 28.4681 5.03901C39.3356 5.03901 46.0381 26.6667 49.875 46.0721C53.9159 45.1135 58.0841 45.1135 62.125 46.0721C65.9619 26.6667 72.6644 5.03901 83.5319 5.03901C85.1028 5.00095 86.6532 5.45472 88.0177 6.35193C89.3823 7.24914 90.5098 8.55613 91.28 10.1335C94.64 16.5382 93.7738 27.2663 92.4569 35.1373C90.6309 45.5111 87.6056 55.5561 83.4619 65.0039C84.9398 68.4526 85.9182 72.1564 86.3581 75.9689C88.6504 78.3291 90.4831 81.2214 91.7355 84.4557C92.988 87.6899 93.6319 91.1929 93.625 94.7343ZM67.1825 47.7854C70.6727 49.363 73.8818 51.6654 76.65 54.578C77.9284 55.927 79.1064 57.3968 80.1719 58.9721C87.4431 40.9171 90.5625 20.4283 86.7869 13.2628C86.4807 12.5805 86.0117 12.0131 85.4351 11.6275C84.8584 11.2418 84.1981 11.0539 83.5319 11.0859C77.9187 11.0859 71.5794 25.3968 67.1825 47.7854ZM31.8281 58.957C32.8866 57.3827 34.0573 55.9129 35.3281 54.5629C38.0963 51.6503 41.3054 49.3479 44.7956 47.7703C40.4206 25.3968 34.0813 11.0859 28.4681 11.0859C27.8019 11.0539 27.1416 11.2418 26.5649 11.6275C25.9883 12.0131 25.5193 12.5805 25.2131 13.2628C21.4375 20.4283 24.5569 40.9171 31.8281 58.957ZM88.375 94.7343C88.3791 91.8827 87.8283 89.0662 86.7631 86.4919C85.6978 83.9177 84.1452 81.6512 82.2194 79.859C81.949 79.6054 81.7248 79.2928 81.5596 78.9391C81.3944 78.5854 81.2915 78.1977 81.2569 77.798C80.6387 70.5783 77.7113 63.8814 73.044 59.0097C68.3767 54.138 62.3031 51.4398 56.0044 51.4398C49.7056 51.4398 43.6321 54.138 38.9647 59.0097C34.2974 63.8814 31.37 70.5783 30.7519 77.798C30.7184 78.1967 30.6164 78.5838 30.452 78.9368C30.2875 79.2897 30.0637 79.6015 29.7937 79.854C28.0163 81.4999 26.552 83.5494 25.4917 85.8751C24.4314 88.2008 23.7979 90.7529 23.6306 93.3726C23.4633 95.9923 23.7657 98.6237 24.5192 101.103C25.2726 103.582 26.4608 105.857 28.01 107.784C29.5592 109.712 31.4362 111.252 33.5242 112.309C35.6123 113.365 37.8667 113.916 40.1473 113.926C42.4279 113.936 44.686 113.405 46.781 112.367C48.8759 111.329 50.7631 109.805 52.325 107.891L47.3288 103.104C47.0506 102.855 46.8188 102.545 46.647 102.191C46.4753 101.837 46.3672 101.446 46.3291 101.043C46.291 100.64 46.3238 100.232 46.4254 99.8436C46.5271 99.4553 46.6955 99.0944 46.9207 98.7826C47.1459 98.4708 47.4233 98.2144 47.7363 98.0286C48.0494 97.8428 48.3916 97.7315 48.7428 97.7012C49.094 97.6709 49.4468 97.7224 49.7804 97.8524C50.114 97.9824 50.4214 98.1885 50.6844 98.4582L56 103.553L61.32 98.4582C61.583 98.1885 61.8904 97.9824 62.224 97.8524C62.5575 97.7224 62.9104 97.6709 63.2616 97.7012C63.6127 97.7315 63.955 97.8428 64.268 98.0286C64.5811 98.2144 64.8585 98.4708 65.0837 98.7826C65.3089 99.0944 65.4773 99.4553 65.5789 99.8436C65.6806 100.232 65.7133 100.64 65.6753 101.043C65.6372 101.446 65.5291 101.837 65.3573 102.191C65.1856 102.545 64.9538 102.855 64.6756 103.104L59.6794 107.891C61.9663 110.673 64.925 112.6 68.1729 113.424C71.4209 114.248 74.8088 113.932 77.8988 112.515C80.9888 111.098 83.6388 108.646 85.5064 105.477C87.374 102.307 88.3732 98.565 88.375 94.7343Z"/>
</mask>
<path d="M48.125 82.6406C48.125 83.6372 47.8684 84.6115 47.3877 85.4401C46.9069 86.2688 46.2237 86.9147 45.4242 87.2961C44.6248 87.6775 43.7451 87.7772 42.8965 87.5828C42.0478 87.3884 41.2683 86.9085 40.6564 86.2037C40.0446 85.499 39.6279 84.6011 39.4591 83.6236C39.2903 82.6462 39.3769 81.633 39.708 80.7122C40.0392 79.7914 40.5999 79.0044 41.3194 78.4507C42.0388 77.897 42.8847 77.6015 43.75 77.6015C44.9103 77.6015 46.0231 78.1324 46.8436 79.0774C47.6641 80.0224 48.125 81.3041 48.125 82.6406ZM68.25 77.6015C67.3847 77.6015 66.5388 77.897 65.8194 78.4507C65.0999 79.0044 64.5392 79.7914 64.208 80.7122C63.8769 81.633 63.7903 82.6462 63.9591 83.6236C64.1279 84.6011 64.5445 85.499 65.1564 86.2037C65.7683 86.9085 66.5478 87.3884 67.3965 87.5828C68.2451 87.7772 69.1248 87.6775 69.9242 87.2961C70.7237 86.9147 71.4069 86.2688 71.8877 85.4401C72.3684 84.6115 72.625 83.6372 72.625 82.6406C72.625 81.3041 72.1641 80.0224 71.3436 79.0774C70.5231 78.1324 69.4103 77.6015 68.25 77.6015ZM93.625 94.7343C93.6251 99.757 92.3218 104.665 89.8825 108.829C87.4432 112.992 83.9792 116.221 79.9351 118.1C75.8911 119.979 71.4517 120.424 67.1868 119.376C62.9219 118.328 59.0263 115.836 56 112.22C53.9611 114.662 51.5156 116.605 48.8096 117.934C46.1036 119.262 43.1929 119.948 40.2513 119.951C37.3098 119.954 34.398 119.274 31.69 117.951C28.9821 116.628 26.5336 114.689 24.4911 112.251C22.4485 109.813 20.8539 106.926 19.8025 103.762C18.7511 100.597 18.2645 97.2216 18.372 93.8358C18.4794 90.4501 19.1786 87.1241 20.4277 84.0568C21.6769 80.9894 23.4503 78.2437 25.6419 75.984C26.0804 72.1664 27.0588 68.4573 28.5381 65.0039C24.3933 55.5514 21.3679 45.5012 19.5431 35.1222C18.2306 27.2512 17.3556 16.523 20.72 10.1184C21.4919 8.54383 22.6202 7.23988 23.9846 6.34542C25.349 5.45096 26.8986 4.99946 28.4681 5.03901C39.3356 5.03901 46.0381 26.6667 49.875 46.0721C53.9159 45.1135 58.0841 45.1135 62.125 46.0721C65.9619 26.6667 72.6644 5.03901 83.5319 5.03901C85.1028 5.00095 86.6532 5.45472 88.0177 6.35193C89.3823 7.24914 90.5098 8.55613 91.28 10.1335C94.64 16.5382 93.7738 27.2663 92.4569 35.1373C90.6309 45.5111 87.6056 55.5561 83.4619 65.0039C84.9398 68.4526 85.9182 72.1564 86.3581 75.9689C88.6504 78.3291 90.4831 81.2214 91.7355 84.4557C92.988 87.6899 93.6319 91.1929 93.625 94.7343ZM67.1825 47.7854C70.6727 49.363 73.8818 51.6654 76.65 54.578C77.9284 55.927 79.1064 57.3968 80.1719 58.9721C87.4431 40.9171 90.5625 20.4283 86.7869 13.2628C86.4807 12.5805 86.0117 12.0131 85.4351 11.6275C84.8584 11.2418 84.1981 11.0539 83.5319 11.0859C77.9187 11.0859 71.5794 25.3968 67.1825 47.7854ZM31.8281 58.957C32.8866 57.3827 34.0573 55.9129 35.3281 54.5629C38.0963 51.6503 41.3054 49.3479 44.7956 47.7703C40.4206 25.3968 34.0813 11.0859 28.4681 11.0859C27.8019 11.0539 27.1416 11.2418 26.5649 11.6275C25.9883 12.0131 25.5193 12.5805 25.2131 13.2628C21.4375 20.4283 24.5569 40.9171 31.8281 58.957ZM88.375 94.7343C88.3791 91.8827 87.8283 89.0662 86.7631 86.4919C85.6978 83.9177 84.1452 81.6512 82.2194 79.859C81.949 79.6054 81.7248 79.2928 81.5596 78.9391C81.3944 78.5854 81.2915 78.1977 81.2569 77.798C80.6387 70.5783 77.7113 63.8814 73.044 59.0097C68.3767 54.138 62.3031 51.4398 56.0044 51.4398C49.7056 51.4398 43.6321 54.138 38.9647 59.0097C34.2974 63.8814 31.37 70.5783 30.7519 77.798C30.7184 78.1967 30.6164 78.5838 30.452 78.9368C30.2875 79.2897 30.0637 79.6015 29.7937 79.854C28.0163 81.4999 26.552 83.5494 25.4917 85.8751C24.4314 88.2008 23.7979 90.7529 23.6306 93.3726C23.4633 95.9923 23.7657 98.6237 24.5192 101.103C25.2726 103.582 26.4608 105.857 28.01 107.784C29.5592 109.712 31.4362 111.252 33.5242 112.309C35.6123 113.365 37.8667 113.916 40.1473 113.926C42.4279 113.936 44.686 113.405 46.781 112.367C48.8759 111.329 50.7631 109.805 52.325 107.891L47.3288 103.104C47.0506 102.855 46.8188 102.545 46.647 102.191C46.4753 101.837 46.3672 101.446 46.3291 101.043C46.291 100.64 46.3238 100.232 46.4254 99.8436C46.5271 99.4553 46.6955 99.0944 46.9207 98.7826C47.1459 98.4708 47.4233 98.2144 47.7363 98.0286C48.0494 97.8428 48.3916 97.7315 48.7428 97.7012C49.094 97.6709 49.4468 97.7224 49.7804 97.8524C50.114 97.9824 50.4214 98.1885 50.6844 98.4582L56 103.553L61.32 98.4582C61.583 98.1885 61.8904 97.9824 62.224 97.8524C62.5575 97.7224 62.9104 97.6709 63.2616 97.7012C63.6127 97.7315 63.955 97.8428 64.268 98.0286C64.5811 98.2144 64.8585 98.4708 65.0837 98.7826C65.3089 99.0944 65.4773 99.4553 65.5789 99.8436C65.6806 100.232 65.7133 100.64 65.6753 101.043C65.6372 101.446 65.5291 101.837 65.3573 102.191C65.1856 102.545 64.9538 102.855 64.6756 103.104L59.6794 107.891C61.9663 110.673 64.925 112.6 68.1729 113.424C71.4209 114.248 74.8088 113.932 77.8988 112.515C80.9888 111.098 83.6388 108.646 85.5064 105.477C87.374 102.307 88.3732 98.565 88.375 94.7343Z" fill="#FAF8F6" stroke="#FAF8F6" stroke-width="0.125" mask="url(#path-1-inside-1_14_17)"/>
</svg>
