<svg width="138" height="149" viewBox="0 0 138 149" fill="none" xmlns="http://www.w3.org/2000/svg">
<path d="M103.048 92.7325C101.485 93.5895 99.7215 94.1098 97.8957 94.2523C95.3929 94.4194 92.8941 93.8856 90.7456 92.7249C90.1916 92.426 89.5276 92.3362 88.8996 92.4753C88.2717 92.6144 87.7312 92.971 87.3971 93.4666C87.0629 93.9623 86.9626 94.5564 87.1181 95.1182C87.2735 95.6801 87.6721 96.1637 88.2261 96.4626C90.8605 97.8794 93.8726 98.6358 96.9464 98.6525C97.388 98.6525 97.8407 98.6365 98.3029 98.6016C100.886 98.4015 103.382 97.6667 105.593 96.4553C105.871 96.3077 106.113 96.1122 106.306 95.8802C106.498 95.6482 106.637 95.3843 106.715 95.1038C106.792 94.8234 106.807 94.5319 106.757 94.2464C106.708 93.9609 106.596 93.687 106.427 93.4405C106.259 93.1941 106.037 92.98 105.776 92.8108C105.514 92.6415 105.217 92.5205 104.903 92.4546C104.588 92.3887 104.263 92.3794 103.944 92.4271C103.626 92.4748 103.321 92.5786 103.048 92.7325H103.048ZM117.552 38.9293C120.408 34.8918 121.918 30.209 121.904 25.4307C121.904 11.4082 109.087 0 93.3328 0C77.5788 0 64.7616 11.4082 64.7616 25.4307C64.7625 26.9463 64.9146 28.4588 65.216 29.9502C43.8694 37.3662 28.5161 57.5539 28.5161 81.2364C28.5161 95.7657 35.5056 110.233 47.7045 121.005C52.5666 130.975 61.632 140.637 71.6574 145.49C76.4919 147.83 81.2939 149 85.9365 149C90.701 148.984 95.3604 147.745 99.3618 145.431C100.621 144.722 101.884 144.013 103.15 143.304C111.425 138.666 117.413 131.037 121.025 120.563C122.345 119.313 138 103.945 138 81.2364C138 64.156 130.012 48.8946 117.552 38.9293ZM93.3328 4.36473C106.397 4.36473 117.026 13.815 117.026 25.4307C117.035 29.1999 115.899 32.9005 113.739 36.1365C105.021 30.316 94.5325 26.9153 83.2579 26.9153C78.7432 26.9147 74.2495 27.4659 69.9015 28.5535C69.7283 27.5198 69.641 26.476 69.6404 25.4307C69.6404 13.8147 80.2687 4.36473 93.3331 4.36473H93.3328ZM118.778 109.913C118.742 110.093 118.7 110.311 118.652 110.564C115.966 124.612 109.879 134.383 100.56 139.605C99.2927 140.316 98.0272 141.026 96.7636 141.737C88.1256 146.601 79.6053 144.375 73.9789 141.651C64.8777 137.245 56.4554 128.163 52.0492 119C52.0271 118.946 52.0026 118.894 51.9757 118.842C50.0581 114.811 48.9173 110.77 48.8467 107.109L48.259 76.578C53.6382 78.4016 59.0295 79.1183 64.3092 78.7106C68.3603 78.3976 71.0463 77.5301 73.4162 76.7651C75.9888 75.9347 78.0214 75.2771 81.3352 75.5515C88.5679 76.1465 94.8987 80.5575 97.2852 82.4268C97.8079 82.8359 98.3608 83.2974 98.9462 83.7862C102.148 86.4598 106.533 90.1209 113.348 91.1254L113.381 91.1306C114.812 91.4226 116.276 91.5611 117.743 91.5433C118.212 91.5375 118.681 91.5158 119.149 91.4784C120.119 97.6018 119.994 103.824 118.778 109.913ZM123.703 110.034C124.96 103.321 124.991 96.4699 123.794 89.7482C123.72 89.3251 123.555 88.9191 123.306 88.5533C123.057 88.1876 122.73 87.8694 122.343 87.6169C121.957 87.3643 121.519 87.1824 121.053 87.0815C120.588 86.9806 120.106 86.9628 119.633 87.029C117.894 87.2763 116.118 87.2196 114.403 86.8619C114.344 86.8497 114.286 86.8394 114.227 86.8311L114.144 86.8195C108.783 86.0291 105.325 83.1423 102.275 80.5953C101.66 80.082 101.079 79.597 100.498 79.1419C97.0895 76.4727 90.1254 71.8915 81.782 71.2048C77.3859 70.8434 74.5262 71.7664 71.7605 72.6597C69.5698 73.3668 67.3049 74.098 63.89 74.3619C58.8415 74.7518 53.6395 73.9339 48.4249 71.9316C47.8662 71.7176 47.2566 71.6319 46.6515 71.6826C46.0465 71.7332 45.4652 71.9185 44.9606 72.2216C44.4561 72.5247 44.0443 72.9359 43.7628 73.4178C43.4813 73.8997 43.3391 74.4369 43.3491 74.9806L43.9689 107.184C43.9973 108.377 44.1103 109.567 44.3072 110.748C37.2901 101.974 33.3945 91.6148 33.3945 81.2364C33.3945 53.6903 55.7633 31.2797 83.2582 31.2797C110.753 31.2797 133.122 53.6903 133.122 81.2364C133.122 90.0555 130.598 98.7375 125.621 107.041C125.013 108.054 124.374 109.052 123.703 110.034ZM34.0401 116.673C34.0401 116.19 33.8607 115.72 33.5301 115.338C33.1995 114.955 32.7363 114.682 32.2133 114.561C29.1252 113.843 26.3074 112.401 24.0513 110.383C21.7953 108.364 20.183 105.843 19.3812 103.08C19.2456 102.612 18.9401 102.198 18.5128 101.902C18.0854 101.606 17.5604 101.445 17.02 101.445C16.4797 101.445 15.9546 101.606 15.5273 101.902C15.0999 102.198 14.7945 102.612 14.6589 103.08C13.8571 105.843 12.2448 108.364 9.98884 110.382C7.73287 112.401 4.91512 113.843 1.82708 114.561C1.30402 114.682 0.840796 114.955 0.51011 115.338C0.179425 115.72 0 116.19 0 116.673C0 117.157 0.179425 117.627 0.51011 118.009C0.840796 118.391 1.30402 118.665 1.82708 118.786C4.91519 119.503 7.73303 120.946 9.98907 122.964C12.2451 124.983 13.8574 127.504 14.6592 130.267C14.7948 130.735 15.1003 131.149 15.5276 131.445C15.9549 131.741 16.48 131.901 17.0204 131.901C17.5607 131.901 18.0858 131.741 18.5131 131.445C18.9405 131.149 19.2459 130.735 19.3815 130.267C20.1833 127.504 21.7955 124.983 24.0515 122.964C26.3075 120.946 29.1252 119.503 32.2133 118.786C32.7363 118.664 33.1995 118.391 33.5301 118.009C33.8607 117.626 34.0401 117.157 34.0401 116.673ZM17.02 124.038C15.034 120.988 12.1978 118.45 8.78855 116.673C12.1978 114.896 15.034 112.359 17.02 109.309C19.0061 112.359 21.8422 114.896 25.2515 116.673C21.8422 118.45 19.0061 120.988 17.02 124.038ZM93.0817 122.253C92.8352 122.071 92.5508 121.933 92.2447 121.848C91.9387 121.764 91.617 121.734 91.2981 121.76C90.9791 121.787 90.6692 121.87 90.3859 122.003C90.1027 122.137 89.8517 122.32 89.6473 122.54C88.5307 123.753 86.9753 124.577 85.2506 124.871C81.2861 125.467 78.3161 122.519 78.2865 122.489C77.8584 122.055 77.2552 121.791 76.6096 121.755C75.9639 121.719 75.3286 121.914 74.8435 122.297C74.3584 122.68 74.0632 123.219 74.0228 123.797C73.9825 124.375 74.2003 124.943 74.6283 125.377C75.0641 125.819 78.6904 129.32 84.1383 129.32C84.7816 129.32 85.4238 129.271 86.0581 129.176C88.9409 128.717 91.5457 127.352 93.403 125.326C93.8158 124.881 94.0138 124.307 93.9536 123.73C93.8933 123.154 93.5797 122.623 93.0817 122.253ZM76.2659 93.455C75.9282 92.9614 75.3853 92.6079 74.7564 92.4724C74.1275 92.3369 73.4642 92.4305 72.9125 92.7325C71.3499 93.5895 69.5861 94.1098 67.7602 94.2523C65.2575 94.4194 62.7588 93.8856 60.6104 92.7249C60.0565 92.426 59.3925 92.3362 58.7645 92.4753C58.1365 92.6144 57.596 92.971 57.2619 93.4666C56.9278 93.9623 56.8274 94.5564 56.9829 95.1182C57.1384 95.6801 57.5369 96.1637 58.0909 96.4626C60.7254 97.8794 63.7375 98.6358 66.8112 98.6525C67.2525 98.6525 67.7053 98.6365 68.1674 98.6016C70.7507 98.4015 73.2466 97.6667 75.458 96.4553C76.0098 96.1533 76.4049 95.6675 76.5564 95.1048C76.7079 94.5422 76.6034 93.9487 76.2659 93.455ZM49.9524 135.752C47.9697 135.292 46.1604 134.365 44.7119 133.069C43.2634 131.773 42.2282 130.155 41.7135 128.381C41.5779 127.913 41.2724 127.498 40.8451 127.202C40.4178 126.907 39.8927 126.746 39.3523 126.746C38.812 126.746 38.2869 126.907 37.8596 127.202C37.4323 127.498 37.1268 127.913 36.9912 128.381C36.4764 130.155 35.4413 131.773 33.9928 133.069C32.5444 134.365 30.7352 135.291 28.7526 135.752C28.2295 135.873 27.7663 136.146 27.4356 136.529C27.1049 136.911 26.9255 137.381 26.9255 137.864C26.9255 138.348 27.1049 138.818 27.4356 139.2C27.7663 139.582 28.2295 139.856 28.7526 139.977C30.7353 140.437 32.5446 141.364 33.9931 142.66C35.4416 143.956 36.4768 145.574 36.9915 147.348C37.1272 147.816 37.4326 148.231 37.86 148.527C38.2874 148.822 38.8124 148.983 39.3528 148.983C39.8931 148.983 40.4182 148.822 40.8455 148.526C41.2728 148.231 41.5782 147.816 41.7138 147.348C42.2286 145.574 43.2637 143.956 44.7122 142.66C46.1606 141.364 47.9698 140.437 49.9524 139.977C50.4755 139.856 50.9387 139.582 51.2694 139.2C51.6001 138.818 51.7795 138.348 51.7795 137.864C51.7795 137.381 51.6001 136.911 51.2694 136.529C50.9387 136.146 50.4755 135.873 49.9524 135.752V135.752ZM39.3523 141.626C38.2187 140.154 36.7938 138.879 35.1478 137.864C36.7938 136.85 38.2187 135.575 39.3523 134.102C40.4862 135.575 41.9112 136.85 43.5572 137.864C41.9112 138.879 40.4862 140.154 39.3523 141.626Z" fill="#FAF8F6"/>
</svg>
